<?xml version="1.0" standalone="no"?>
<!DOCTYPE svg PUBLIC "-//W3C//DTD SVG 20010904//EN"
 "http://www.w3.org/TR/2001/REC-SVG-20010904/DTD/svg10.dtd">
<svg version="1.0" xmlns="http://www.w3.org/2000/svg"
 width="512.000000pt" height="512.000000pt" viewBox="0 0 512.000000 512.000000"
 preserveAspectRatio="xMidYMid meet">
<metadata>
Created by potrace 1.14, written by Peter Selinger 2001-2017
</metadata>
<g transform="translate(0.000000,512.000000) scale(0.100000,-0.100000)"
fill="#000000" stroke="none">
<path d="M40 4685 c0 -2 35 -63 78 -137 43 -74 82 -141 86 -149 4 -8 12 -23
19 -34 31 -51 496 -856 535 -925 13 -25 46 -81 72 -125 52 -88 94 -161 125
-216 23 -41 362 -626 375 -649 27 -43 100 -172 100 -175 0 -1 25 -44 55 -94
30 -51 55 -94 55 -97 0 -3 8 -18 19 -32 10 -15 30 -48 44 -74 15 -26 129 -224
253 -440 125 -216 270 -467 322 -558 52 -91 126 -219 165 -285 38 -66 83 -145
100 -175 17 -30 38 -66 47 -80 9 -14 30 -49 45 -78 16 -29 32 -49 36 -45 4 5
69 113 143 242 l135 233 -16 32 c-14 28 -50 90 -148 256 -18 30 -43 75 -57
100 -14 25 -90 158 -170 295 -172 297 -517 895 -545 945 -11 19 -77 134 -148
255 -70 121 -146 254 -170 295 -24 41 -52 91 -64 110 -11 19 -33 58 -49 85
-15 28 -88 154 -161 280 -74 127 -141 244 -151 260 -9 17 -83 143 -162 281
-80 138 -157 271 -170 295 -14 24 -58 100 -98 169 -40 69 -84 145 -98 170 -13
25 -29 50 -34 57 -7 9 -84 12 -289 11 -153 0 -279 -2 -279 -3z"/>
<path d="M1170 4680 c0 -5 59 -110 131 -235 71 -124 139 -242 150 -261 38 -67
58 -103 236 -409 99 -170 195 -337 213 -370 18 -33 40 -71 48 -83 9 -13 23
-36 31 -52 9 -15 45 -79 81 -141 35 -63 68 -115 72 -117 4 -2 8 -8 8 -13 0 -6
33 -67 74 -137 114 -196 366 -632 392 -678 13 -22 85 -148 161 -280 77 -131
142 -246 146 -254 24 -50 207 -355 215 -358 5 -1 32 37 59 85 55 98 194 339
214 370 13 21 18 13 -408 746 -79 136 -153 264 -164 285 -11 20 -25 46 -32 57
-25 40 -55 91 -79 135 -65 117 -124 215 -130 218 -5 2 -8 8 -8 13 0 8 -31 64
-185 329 -8 14 -162 280 -341 591 l-327 566 -279 1 c-153 0 -278 -3 -278 -8z"/>
<path d="M2290 4682 c0 -4 23 -45 50 -91 28 -46 50 -85 50 -86 0 -2 64 -112
141 -246 140 -242 475 -821 574 -994 28 -49 78 -135 110 -190 32 -55 70 -120
84 -145 14 -25 71 -124 126 -219 55 -95 114 -196 130 -225 17 -29 52 -92 79
-140 28 -47 54 -85 59 -83 5 1 22 27 39 57 16 30 47 84 68 120 87 149 170 295
170 302 0 4 -79 143 -175 309 -96 165 -175 304 -175 307 0 3 -6 13 -14 21 -7
9 -29 46 -49 82 -20 37 -61 108 -92 159 -30 51 -55 94 -55 96 0 2 -38 67 -84
146 -45 79 -94 163 -108 188 -14 25 -103 178 -197 341 l-172 297 -279 0 c-154
0 -280 -3 -280 -6z"/>
<path d="M3410 4685 c0 -2 154 -271 180 -315 5 -8 49 -85 98 -170 49 -85 138
-238 197 -340 59 -102 117 -203 130 -225 12 -22 49 -85 81 -140 31 -55 63
-109 69 -120 40 -74 78 -136 84 -140 7 -4 162 255 169 282 2 7 8 13 13 13 5 0
9 5 9 11 0 6 20 45 45 86 25 40 45 78 45 84 0 10 -21 50 -77 144 -16 28 -32
57 -36 65 -4 8 -17 31 -28 50 -33 54 -251 432 -266 460 -7 14 -44 77 -81 140
l-67 115 -283 1 c-155 1 -282 0 -282 -1z"/>
<path d="M4540 4680 c0 -5 32 -64 71 -132 39 -67 80 -139 91 -158 81 -141 111
-191 114 -188 8 9 274 472 274 479 0 4 -124 7 -275 7 -151 0 -275 -4 -275 -8z"/>
</g>
</svg>
